<mxfile host="app.diagrams.net" agent="Mozilla/5.0 (Windows NT 10.0; Win64; x64) AppleWebKit/537.36 (KHTML, like Gecko) Chrome/127.0.0.0 Safari/537.36 Edg/127.0.0.0" version="24.7.7">
  <diagram id="R2lEEEUBdFMjLlhIrx00" name="Page-1">
    <mxGraphModel dx="2587" dy="945" grid="1" gridSize="10" guides="1" tooltips="1" connect="1" arrows="1" fold="1" page="1" pageScale="1" pageWidth="850" pageHeight="1100" math="0" shadow="0" extFonts="Permanent Marker^https://fonts.googleapis.com/css?family=Permanent+Marker">
      <root>
        <mxCell id="0" />
        <mxCell id="1" parent="0" />
        <mxCell id="qPio0Fc4V_FM9tHUBAnY-15" style="edgeStyle=none;curved=1;rounded=0;orthogonalLoop=1;jettySize=auto;html=1;exitX=0.5;exitY=0;exitDx=0;exitDy=0;entryX=0.5;entryY=1;entryDx=0;entryDy=0;fontSize=12;startSize=8;endSize=8;endArrow=none;endFill=0;" parent="1" source="chPsJlegoH1Q3GuqMaIp-1" target="chPsJlegoH1Q3GuqMaIp-3" edge="1">
          <mxGeometry relative="1" as="geometry" />
        </mxCell>
        <mxCell id="chPsJlegoH1Q3GuqMaIp-1" value="Items" style="whiteSpace=wrap;html=1;align=center;" parent="1" vertex="1">
          <mxGeometry x="180" y="160" width="100" height="40" as="geometry" />
        </mxCell>
        <mxCell id="qPio0Fc4V_FM9tHUBAnY-16" style="edgeStyle=none;curved=1;rounded=0;orthogonalLoop=1;jettySize=auto;html=1;exitX=0.5;exitY=1;exitDx=0;exitDy=0;entryX=0.5;entryY=0;entryDx=0;entryDy=0;fontSize=12;startSize=8;endSize=8;endArrow=none;endFill=0;" parent="1" source="chPsJlegoH1Q3GuqMaIp-2" target="chPsJlegoH1Q3GuqMaIp-1" edge="1">
          <mxGeometry relative="1" as="geometry" />
        </mxCell>
        <mxCell id="chPsJlegoH1Q3GuqMaIp-2" value="item code" style="ellipse;whiteSpace=wrap;html=1;align=center;fontStyle=4;" parent="1" vertex="1">
          <mxGeometry x="300" y="70" width="100" height="40" as="geometry" />
        </mxCell>
        <mxCell id="chPsJlegoH1Q3GuqMaIp-3" value="item name" style="ellipse;whiteSpace=wrap;html=1;align=center;" parent="1" vertex="1">
          <mxGeometry x="180" y="70" width="100" height="40" as="geometry" />
        </mxCell>
        <mxCell id="qPio0Fc4V_FM9tHUBAnY-17" style="edgeStyle=none;curved=1;rounded=0;orthogonalLoop=1;jettySize=auto;html=1;exitX=0.5;exitY=1;exitDx=0;exitDy=0;entryX=0.5;entryY=0;entryDx=0;entryDy=0;fontSize=12;startSize=8;endSize=8;endArrow=none;endFill=0;" parent="1" source="chPsJlegoH1Q3GuqMaIp-4" target="chPsJlegoH1Q3GuqMaIp-1" edge="1">
          <mxGeometry relative="1" as="geometry" />
        </mxCell>
        <mxCell id="chPsJlegoH1Q3GuqMaIp-4" value="item description" style="ellipse;whiteSpace=wrap;html=1;align=center;" parent="1" vertex="1">
          <mxGeometry x="60" y="70" width="100" height="40" as="geometry" />
        </mxCell>
        <mxCell id="chPsJlegoH1Q3GuqMaIp-6" value="suppliers" style="whiteSpace=wrap;html=1;align=center;" parent="1" vertex="1">
          <mxGeometry x="570" y="160" width="100" height="40" as="geometry" />
        </mxCell>
        <mxCell id="qPio0Fc4V_FM9tHUBAnY-18" style="edgeStyle=none;curved=1;rounded=0;orthogonalLoop=1;jettySize=auto;html=1;exitX=1;exitY=0.5;exitDx=0;exitDy=0;entryX=0.25;entryY=0;entryDx=0;entryDy=0;fontSize=12;startSize=8;endSize=8;endArrow=none;endFill=0;" parent="1" source="chPsJlegoH1Q3GuqMaIp-7" target="chPsJlegoH1Q3GuqMaIp-6" edge="1">
          <mxGeometry relative="1" as="geometry" />
        </mxCell>
        <mxCell id="chPsJlegoH1Q3GuqMaIp-7" value="suppliercode" style="ellipse;whiteSpace=wrap;html=1;align=center;fontStyle=4;" parent="1" vertex="1">
          <mxGeometry x="460" y="90" width="100" height="40" as="geometry" />
        </mxCell>
        <mxCell id="qPio0Fc4V_FM9tHUBAnY-19" style="edgeStyle=none;curved=1;rounded=0;orthogonalLoop=1;jettySize=auto;html=1;exitX=0.5;exitY=1;exitDx=0;exitDy=0;entryX=0.5;entryY=0;entryDx=0;entryDy=0;fontSize=12;startSize=8;endSize=8;endArrow=none;endFill=0;" parent="1" source="chPsJlegoH1Q3GuqMaIp-8" target="chPsJlegoH1Q3GuqMaIp-6" edge="1">
          <mxGeometry relative="1" as="geometry" />
        </mxCell>
        <mxCell id="chPsJlegoH1Q3GuqMaIp-8" value="name" style="ellipse;whiteSpace=wrap;html=1;align=center;" parent="1" vertex="1">
          <mxGeometry x="590" y="60" width="100" height="40" as="geometry" />
        </mxCell>
        <mxCell id="qPio0Fc4V_FM9tHUBAnY-21" style="edgeStyle=none;curved=1;rounded=0;orthogonalLoop=1;jettySize=auto;html=1;exitX=0;exitY=0.5;exitDx=0;exitDy=0;fontSize=12;startSize=8;endSize=8;entryX=0.75;entryY=0;entryDx=0;entryDy=0;endArrow=none;endFill=0;" parent="1" source="chPsJlegoH1Q3GuqMaIp-10" target="chPsJlegoH1Q3GuqMaIp-6" edge="1">
          <mxGeometry relative="1" as="geometry">
            <mxPoint x="620.0000000000005" y="160" as="targetPoint" />
          </mxGeometry>
        </mxCell>
        <mxCell id="chPsJlegoH1Q3GuqMaIp-10" value="phone" style="ellipse;whiteSpace=wrap;html=1;align=center;" parent="1" vertex="1">
          <mxGeometry x="700" y="80" width="100" height="40" as="geometry" />
        </mxCell>
        <mxCell id="qPio0Fc4V_FM9tHUBAnY-22" style="edgeStyle=none;curved=1;rounded=0;orthogonalLoop=1;jettySize=auto;html=1;exitX=0;exitY=0.5;exitDx=0;exitDy=0;entryX=1;entryY=0.5;entryDx=0;entryDy=0;fontSize=12;startSize=8;endSize=8;endArrow=none;endFill=0;" parent="1" source="chPsJlegoH1Q3GuqMaIp-11" target="chPsJlegoH1Q3GuqMaIp-6" edge="1">
          <mxGeometry relative="1" as="geometry" />
        </mxCell>
        <mxCell id="chPsJlegoH1Q3GuqMaIp-11" value="fax" style="ellipse;whiteSpace=wrap;html=1;align=center;" parent="1" vertex="1">
          <mxGeometry x="710" y="140" width="100" height="40" as="geometry" />
        </mxCell>
        <mxCell id="qPio0Fc4V_FM9tHUBAnY-23" style="edgeStyle=none;curved=1;rounded=0;orthogonalLoop=1;jettySize=auto;html=1;exitX=0;exitY=0.5;exitDx=0;exitDy=0;entryX=1;entryY=0.75;entryDx=0;entryDy=0;fontSize=12;startSize=8;endSize=8;endArrow=none;endFill=0;" parent="1" source="chPsJlegoH1Q3GuqMaIp-12" target="chPsJlegoH1Q3GuqMaIp-6" edge="1">
          <mxGeometry relative="1" as="geometry" />
        </mxCell>
        <mxCell id="chPsJlegoH1Q3GuqMaIp-12" value="address" style="ellipse;whiteSpace=wrap;html=1;align=center;" parent="1" vertex="1">
          <mxGeometry x="710" y="210" width="100" height="40" as="geometry" />
        </mxCell>
        <mxCell id="chPsJlegoH1Q3GuqMaIp-13" value="warehouses" style="whiteSpace=wrap;html=1;align=center;" parent="1" vertex="1">
          <mxGeometry x="-180" y="160" width="100" height="40" as="geometry" />
        </mxCell>
        <mxCell id="qPio0Fc4V_FM9tHUBAnY-53" style="edgeStyle=none;curved=1;rounded=0;orthogonalLoop=1;jettySize=auto;html=1;exitX=0;exitY=0.5;exitDx=0;exitDy=0;entryX=1;entryY=0.5;entryDx=0;entryDy=0;fontSize=12;startSize=8;endSize=8;endArrow=none;endFill=0;" parent="1" source="chPsJlegoH1Q3GuqMaIp-14" target="qPio0Fc4V_FM9tHUBAnY-51" edge="1">
          <mxGeometry relative="1" as="geometry" />
        </mxCell>
        <mxCell id="chPsJlegoH1Q3GuqMaIp-14" value="store" style="whiteSpace=wrap;html=1;align=center;" parent="1" vertex="1">
          <mxGeometry x="180" y="390" width="100" height="40" as="geometry" />
        </mxCell>
        <mxCell id="qPio0Fc4V_FM9tHUBAnY-33" style="edgeStyle=none;curved=1;rounded=0;orthogonalLoop=1;jettySize=auto;html=1;exitX=0;exitY=0.5;exitDx=0;exitDy=0;entryX=1;entryY=0.5;entryDx=0;entryDy=0;fontSize=12;startSize=8;endSize=8;endArrow=none;endFill=0;" parent="1" source="chPsJlegoH1Q3GuqMaIp-15" target="chPsJlegoH1Q3GuqMaIp-14" edge="1">
          <mxGeometry relative="1" as="geometry" />
        </mxCell>
        <mxCell id="chPsJlegoH1Q3GuqMaIp-15" value="store code" style="ellipse;whiteSpace=wrap;html=1;align=center;fontStyle=4;" parent="1" vertex="1">
          <mxGeometry x="330" y="380" width="100" height="40" as="geometry" />
        </mxCell>
        <mxCell id="chPsJlegoH1Q3GuqMaIp-16" value="store name" style="ellipse;whiteSpace=wrap;html=1;align=center;" parent="1" vertex="1">
          <mxGeometry x="340" y="440" width="100" height="40" as="geometry" />
        </mxCell>
        <mxCell id="chPsJlegoH1Q3GuqMaIp-17" value="address" style="ellipse;whiteSpace=wrap;html=1;align=center;" parent="1" vertex="1">
          <mxGeometry x="165" y="470" width="100" height="40" as="geometry" />
        </mxCell>
        <mxCell id="chPsJlegoH1Q3GuqMaIp-18" value="phone" style="ellipse;whiteSpace=wrap;html=1;align=center;" parent="1" vertex="1">
          <mxGeometry x="60" y="470" width="100" height="40" as="geometry" />
        </mxCell>
        <mxCell id="qPio0Fc4V_FM9tHUBAnY-43" style="edgeStyle=none;curved=1;rounded=0;orthogonalLoop=1;jettySize=auto;html=1;exitX=0.5;exitY=0;exitDx=0;exitDy=0;entryX=0.25;entryY=1;entryDx=0;entryDy=0;fontSize=12;startSize=8;endSize=8;endArrow=none;endFill=0;" parent="1" source="qPio0Fc4V_FM9tHUBAnY-50" target="qPio0Fc4V_FM9tHUBAnY-32" edge="1">
          <mxGeometry relative="1" as="geometry">
            <mxPoint x="-250" y="539.9999999999998" as="sourcePoint" />
          </mxGeometry>
        </mxCell>
        <mxCell id="qPio0Fc4V_FM9tHUBAnY-42" style="edgeStyle=none;curved=1;rounded=0;orthogonalLoop=1;jettySize=auto;html=1;exitX=1;exitY=0.5;exitDx=0;exitDy=0;fontSize=12;startSize=8;endSize=8;endArrow=none;endFill=0;" parent="1" source="qPio0Fc4V_FM9tHUBAnY-5" edge="1">
          <mxGeometry relative="1" as="geometry">
            <mxPoint x="-180" y="410" as="targetPoint" />
          </mxGeometry>
        </mxCell>
        <mxCell id="qPio0Fc4V_FM9tHUBAnY-5" value="dateOfDelivery" style="ellipse;whiteSpace=wrap;html=1;align=center;" parent="1" vertex="1">
          <mxGeometry x="-360" y="450" width="100" height="40" as="geometry" />
        </mxCell>
        <mxCell id="qPio0Fc4V_FM9tHUBAnY-46" style="edgeStyle=none;curved=1;rounded=0;orthogonalLoop=1;jettySize=auto;html=1;exitX=0.5;exitY=1;exitDx=0;exitDy=0;entryX=0.25;entryY=0;entryDx=0;entryDy=0;fontSize=12;startSize=8;endSize=8;endArrow=none;endFill=0;" parent="1" source="qPio0Fc4V_FM9tHUBAnY-6" target="qPio0Fc4V_FM9tHUBAnY-32" edge="1">
          <mxGeometry relative="1" as="geometry" />
        </mxCell>
        <mxCell id="qPio0Fc4V_FM9tHUBAnY-6" value="item name" style="ellipse;whiteSpace=wrap;html=1;align=center;" parent="1" vertex="1">
          <mxGeometry x="-230" y="300" width="100" height="40" as="geometry" />
        </mxCell>
        <mxCell id="qPio0Fc4V_FM9tHUBAnY-44" style="edgeStyle=none;curved=1;rounded=0;orthogonalLoop=1;jettySize=auto;html=1;exitX=0.5;exitY=0;exitDx=0;exitDy=0;entryX=0.5;entryY=1;entryDx=0;entryDy=0;fontSize=12;startSize=8;endSize=8;endArrow=none;endFill=0;" parent="1" source="qPio0Fc4V_FM9tHUBAnY-7" target="qPio0Fc4V_FM9tHUBAnY-32" edge="1">
          <mxGeometry relative="1" as="geometry" />
        </mxCell>
        <mxCell id="qPio0Fc4V_FM9tHUBAnY-7" value="quantity" style="ellipse;whiteSpace=wrap;html=1;align=center;" parent="1" vertex="1">
          <mxGeometry x="-160" y="540" width="100" height="40" as="geometry" />
        </mxCell>
        <mxCell id="qPio0Fc4V_FM9tHUBAnY-41" style="edgeStyle=none;curved=1;rounded=0;orthogonalLoop=1;jettySize=auto;html=1;exitX=1;exitY=0.5;exitDx=0;exitDy=0;entryX=0;entryY=0.5;entryDx=0;entryDy=0;fontSize=12;startSize=8;endSize=8;endArrow=none;endFill=0;" parent="1" source="qPio0Fc4V_FM9tHUBAnY-8" target="qPio0Fc4V_FM9tHUBAnY-32" edge="1">
          <mxGeometry relative="1" as="geometry" />
        </mxCell>
        <mxCell id="qPio0Fc4V_FM9tHUBAnY-8" value="unit price" style="ellipse;whiteSpace=wrap;html=1;align=center;" parent="1" vertex="1">
          <mxGeometry x="-330" y="370" width="100" height="40" as="geometry" />
        </mxCell>
        <mxCell id="qPio0Fc4V_FM9tHUBAnY-47" style="edgeStyle=none;curved=1;rounded=0;orthogonalLoop=1;jettySize=auto;html=1;exitX=0.5;exitY=1;exitDx=0;exitDy=0;entryX=0.5;entryY=0;entryDx=0;entryDy=0;fontSize=12;startSize=8;endSize=8;endArrow=none;endFill=0;" parent="1" source="qPio0Fc4V_FM9tHUBAnY-9" target="qPio0Fc4V_FM9tHUBAnY-32" edge="1">
          <mxGeometry relative="1" as="geometry" />
        </mxCell>
        <mxCell id="qPio0Fc4V_FM9tHUBAnY-9" value="cash" style="ellipse;whiteSpace=wrap;html=1;align=center;" parent="1" vertex="1">
          <mxGeometry x="-120" y="290" width="100" height="40" as="geometry" />
        </mxCell>
        <mxCell id="qPio0Fc4V_FM9tHUBAnY-11" value="&lt;div&gt;&lt;span style=&quot;text-align: center; text-wrap: nowrap;&quot;&gt;Entities: Items, Suppliers, Warehouses, Store&lt;/span&gt;&lt;br&gt;&lt;/div&gt;&lt;div&gt;&lt;span style=&quot;text-align: center; text-wrap: nowrap;&quot;&gt;Weak Entity: Export Bill&lt;/span&gt;&lt;/div&gt;&lt;div&gt;&lt;span style=&quot;text-align: center; text-wrap: nowrap; background-color: initial;&quot;&gt;&lt;br&gt;&lt;/span&gt;&lt;/div&gt;&lt;div&gt;&lt;span style=&quot;text-align: center; text-wrap: nowrap; background-color: initial;&quot;&gt;&lt;br&gt;&lt;/span&gt;&lt;/div&gt;&lt;div&gt;&lt;span style=&quot;text-align: center; text-wrap: nowrap; background-color: initial;&quot;&gt;Attributes:&lt;/span&gt;&lt;br&gt;&lt;/div&gt;&lt;div&gt;&lt;span style=&quot;text-align: center; text-wrap: nowrap;&quot;&gt;Items: item code(key attribute), item description, item name&lt;/span&gt;&lt;/div&gt;&lt;div&gt;&lt;span style=&quot;text-align: center; text-wrap: nowrap;&quot;&gt;&lt;br&gt;&lt;/span&gt;&lt;/div&gt;&lt;div&gt;&lt;span style=&quot;text-align: center; text-wrap: nowrap;&quot;&gt;Suppliers:&amp;nbsp;&lt;/span&gt;&lt;span style=&quot;background-color: initial;&quot;&gt;name, address, phone, fax, code(key Attribute)&lt;/span&gt;&lt;/div&gt;&lt;div&gt;&lt;span style=&quot;background-color: initial;&quot;&gt;&lt;br&gt;&lt;/span&gt;&lt;/div&gt;&lt;div&gt;&lt;span style=&quot;background-color: initial;&quot;&gt;Warehouses: area(key attribute), item code&amp;nbsp;&lt;/span&gt;&lt;/div&gt;&lt;div&gt;&lt;span style=&quot;background-color: initial;&quot;&gt;&lt;br&gt;&lt;/span&gt;&lt;/div&gt;&lt;div&gt;&lt;span style=&quot;background-color: initial;&quot;&gt;Store:&amp;nbsp;&lt;/span&gt;&lt;span style=&quot;background-color: initial;&quot;&gt;store code(key Attribute), store name, address, and phone&lt;/span&gt;&lt;/div&gt;&lt;div&gt;&lt;span style=&quot;background-color: initial;&quot;&gt;&lt;br&gt;&lt;/span&gt;&lt;/div&gt;&lt;div&gt;&lt;span style=&quot;background-color: initial;&quot;&gt;Export Bill: export code(key attribute), store code,&lt;/span&gt;&lt;span style=&quot;background-color: initial;&quot;&gt;&amp;nbsp;the date of delivery, information, item&amp;nbsp;&lt;/span&gt;&lt;span style=&quot;background-color: initial;&quot;&gt;name, quantity, unit price, and cash&lt;/span&gt;&lt;/div&gt;&lt;div&gt;&lt;br&gt;&lt;/div&gt;&lt;div&gt;&lt;span style=&quot;text-align: center; text-wrap: nowrap;&quot;&gt;&lt;br&gt;&lt;/span&gt;&lt;/div&gt;Relationship:&lt;div&gt;Suppliers - Items: supply (One-to-Many)&lt;/div&gt;&lt;div&gt;&lt;br&gt;&lt;/div&gt;&lt;div&gt;Items - Warehouses: stored (One-to-one)&lt;/div&gt;&lt;div&gt;&lt;br&gt;&lt;/div&gt;&lt;div&gt;Store - Items: get (Many-to-Many)&lt;/div&gt;&lt;div&gt;&lt;br&gt;&lt;/div&gt;&lt;div&gt;Weak Relationship:&lt;/div&gt;&lt;div&gt;Export Bill - Store: received (One-to-Many)&amp;nbsp;&lt;/div&gt;" style="text;html=1;align=left;verticalAlign=middle;whiteSpace=wrap;rounded=0;fontSize=16;" parent="1" vertex="1">
          <mxGeometry x="-830" y="60" width="420" height="550" as="geometry" />
        </mxCell>
        <mxCell id="qPio0Fc4V_FM9tHUBAnY-12" value="supply" style="shape=rhombus;perimeter=rhombusPerimeter;whiteSpace=wrap;html=1;align=center;" parent="1" vertex="1">
          <mxGeometry x="365" y="150" width="120" height="60" as="geometry" />
        </mxCell>
        <mxCell id="qPio0Fc4V_FM9tHUBAnY-13" value="" style="edgeStyle=entityRelationEdgeStyle;fontSize=12;html=1;endArrow=ERoneToMany;rounded=0;startSize=8;endSize=8;curved=1;exitX=0;exitY=0.5;exitDx=0;exitDy=0;entryX=1;entryY=0.5;entryDx=0;entryDy=0;" parent="1" source="qPio0Fc4V_FM9tHUBAnY-12" target="chPsJlegoH1Q3GuqMaIp-1" edge="1">
          <mxGeometry width="100" height="100" relative="1" as="geometry">
            <mxPoint x="300" y="340" as="sourcePoint" />
            <mxPoint x="350" y="260" as="targetPoint" />
          </mxGeometry>
        </mxCell>
        <mxCell id="qPio0Fc4V_FM9tHUBAnY-14" value="" style="endArrow=none;html=1;rounded=0;fontSize=12;startSize=8;endSize=8;curved=1;exitX=1;exitY=0.5;exitDx=0;exitDy=0;entryX=0;entryY=0.5;entryDx=0;entryDy=0;" parent="1" source="qPio0Fc4V_FM9tHUBAnY-12" target="chPsJlegoH1Q3GuqMaIp-6" edge="1">
          <mxGeometry relative="1" as="geometry">
            <mxPoint x="420" y="230" as="sourcePoint" />
            <mxPoint x="580" y="230" as="targetPoint" />
          </mxGeometry>
        </mxCell>
        <mxCell id="qPio0Fc4V_FM9tHUBAnY-25" value="stored" style="shape=rhombus;perimeter=rhombusPerimeter;whiteSpace=wrap;html=1;align=center;" parent="1" vertex="1">
          <mxGeometry x="-10" y="150" width="120" height="60" as="geometry" />
        </mxCell>
        <mxCell id="qPio0Fc4V_FM9tHUBAnY-26" value="" style="edgeStyle=entityRelationEdgeStyle;fontSize=12;html=1;endArrow=ERmandOne;startArrow=ERmandOne;rounded=0;startSize=8;endSize=8;curved=1;exitX=1;exitY=0.5;exitDx=0;exitDy=0;entryX=0;entryY=0.5;entryDx=0;entryDy=0;" parent="1" source="chPsJlegoH1Q3GuqMaIp-13" target="qPio0Fc4V_FM9tHUBAnY-25" edge="1">
          <mxGeometry width="100" height="100" relative="1" as="geometry">
            <mxPoint x="-20" y="370" as="sourcePoint" />
            <mxPoint x="80" y="270" as="targetPoint" />
          </mxGeometry>
        </mxCell>
        <mxCell id="qPio0Fc4V_FM9tHUBAnY-27" value="" style="edgeStyle=entityRelationEdgeStyle;fontSize=12;html=1;endArrow=ERmandOne;startArrow=ERmandOne;rounded=0;startSize=8;endSize=8;curved=1;entryX=0;entryY=0.5;entryDx=0;entryDy=0;" parent="1" target="chPsJlegoH1Q3GuqMaIp-1" edge="1">
          <mxGeometry width="100" height="100" relative="1" as="geometry">
            <mxPoint x="110" y="180" as="sourcePoint" />
            <mxPoint x="240" y="220" as="targetPoint" />
          </mxGeometry>
        </mxCell>
        <mxCell id="qPio0Fc4V_FM9tHUBAnY-30" style="edgeStyle=none;curved=1;rounded=0;orthogonalLoop=1;jettySize=auto;html=1;exitX=0.5;exitY=1;exitDx=0;exitDy=0;entryX=0.5;entryY=0;entryDx=0;entryDy=0;fontSize=12;startSize=8;endSize=8;endArrow=none;endFill=0;" parent="1" source="qPio0Fc4V_FM9tHUBAnY-28" target="chPsJlegoH1Q3GuqMaIp-13" edge="1">
          <mxGeometry relative="1" as="geometry" />
        </mxCell>
        <mxCell id="qPio0Fc4V_FM9tHUBAnY-28" value="&lt;u&gt;Area&lt;/u&gt;" style="ellipse;whiteSpace=wrap;html=1;align=center;" parent="1" vertex="1">
          <mxGeometry x="-240" y="70" width="100" height="40" as="geometry" />
        </mxCell>
        <mxCell id="qPio0Fc4V_FM9tHUBAnY-31" style="edgeStyle=none;curved=1;rounded=0;orthogonalLoop=1;jettySize=auto;html=1;exitX=0.5;exitY=1;exitDx=0;exitDy=0;fontSize=12;startSize=8;endSize=8;endArrow=none;endFill=0;" parent="1" source="qPio0Fc4V_FM9tHUBAnY-29" edge="1">
          <mxGeometry relative="1" as="geometry">
            <mxPoint x="-130" y="160" as="targetPoint" />
          </mxGeometry>
        </mxCell>
        <mxCell id="qPio0Fc4V_FM9tHUBAnY-29" value="item code" style="ellipse;whiteSpace=wrap;html=1;align=center;" parent="1" vertex="1">
          <mxGeometry x="-120" y="70" width="100" height="40" as="geometry" />
        </mxCell>
        <mxCell id="qPio0Fc4V_FM9tHUBAnY-32" value="Export Bill" style="shape=ext;margin=3;double=1;whiteSpace=wrap;html=1;align=center;" parent="1" vertex="1">
          <mxGeometry x="-180" y="390" width="100" height="40" as="geometry" />
        </mxCell>
        <mxCell id="qPio0Fc4V_FM9tHUBAnY-34" style="edgeStyle=none;curved=1;rounded=0;orthogonalLoop=1;jettySize=auto;html=1;exitX=0;exitY=0.5;exitDx=0;exitDy=0;entryX=0.674;entryY=1.024;entryDx=0;entryDy=0;entryPerimeter=0;fontSize=12;startSize=8;endSize=8;endArrow=none;endFill=0;" parent="1" source="chPsJlegoH1Q3GuqMaIp-16" target="chPsJlegoH1Q3GuqMaIp-14" edge="1">
          <mxGeometry relative="1" as="geometry" />
        </mxCell>
        <mxCell id="qPio0Fc4V_FM9tHUBAnY-35" style="edgeStyle=none;curved=1;rounded=0;orthogonalLoop=1;jettySize=auto;html=1;exitX=0.5;exitY=0;exitDx=0;exitDy=0;fontSize=12;startSize=8;endSize=8;endArrow=none;endFill=0;" parent="1" source="chPsJlegoH1Q3GuqMaIp-17" edge="1">
          <mxGeometry relative="1" as="geometry">
            <mxPoint x="222" y="430" as="targetPoint" />
          </mxGeometry>
        </mxCell>
        <mxCell id="qPio0Fc4V_FM9tHUBAnY-36" style="edgeStyle=none;curved=1;rounded=0;orthogonalLoop=1;jettySize=auto;html=1;exitX=0.5;exitY=0;exitDx=0;exitDy=0;fontSize=12;startSize=8;endSize=8;endArrow=none;endFill=0;" parent="1" source="chPsJlegoH1Q3GuqMaIp-18" edge="1">
          <mxGeometry relative="1" as="geometry">
            <mxPoint x="210" y="430" as="targetPoint" />
          </mxGeometry>
        </mxCell>
        <mxCell id="qPio0Fc4V_FM9tHUBAnY-37" value="get" style="shape=rhombus;perimeter=rhombusPerimeter;whiteSpace=wrap;html=1;align=center;" parent="1" vertex="1">
          <mxGeometry x="170" y="270" width="120" height="60" as="geometry" />
        </mxCell>
        <mxCell id="qPio0Fc4V_FM9tHUBAnY-39" value="" style="fontSize=12;html=1;endArrow=ERmany;startArrow=ERmany;rounded=0;startSize=8;endSize=8;exitX=0.5;exitY=0;exitDx=0;exitDy=0;entryX=0.5;entryY=1;entryDx=0;entryDy=0;" parent="1" source="chPsJlegoH1Q3GuqMaIp-14" target="qPio0Fc4V_FM9tHUBAnY-37" edge="1">
          <mxGeometry width="100" height="100" relative="1" as="geometry">
            <mxPoint x="190" y="340" as="sourcePoint" />
            <mxPoint x="290" y="240" as="targetPoint" />
          </mxGeometry>
        </mxCell>
        <mxCell id="qPio0Fc4V_FM9tHUBAnY-40" value="" style="fontSize=12;html=1;endArrow=ERmany;startArrow=ERmany;rounded=0;startSize=8;endSize=8;exitX=0.5;exitY=0;exitDx=0;exitDy=0;entryX=0.5;entryY=1;entryDx=0;entryDy=0;" parent="1" source="qPio0Fc4V_FM9tHUBAnY-37" target="chPsJlegoH1Q3GuqMaIp-1" edge="1">
          <mxGeometry width="100" height="100" relative="1" as="geometry">
            <mxPoint x="340" y="290" as="sourcePoint" />
            <mxPoint x="440" y="190" as="targetPoint" />
          </mxGeometry>
        </mxCell>
        <mxCell id="qPio0Fc4V_FM9tHUBAnY-49" style="edgeStyle=none;curved=1;rounded=0;orthogonalLoop=1;jettySize=auto;html=1;exitX=0.5;exitY=0;exitDx=0;exitDy=0;entryX=0.75;entryY=1;entryDx=0;entryDy=0;fontSize=12;startSize=8;endSize=8;endArrow=none;endFill=0;" parent="1" source="qPio0Fc4V_FM9tHUBAnY-48" target="qPio0Fc4V_FM9tHUBAnY-32" edge="1">
          <mxGeometry relative="1" as="geometry" />
        </mxCell>
        <mxCell id="qPio0Fc4V_FM9tHUBAnY-48" value="export bill code" style="ellipse;whiteSpace=wrap;html=1;align=center;fontStyle=4;" parent="1" vertex="1">
          <mxGeometry x="-40" y="530" width="100" height="40" as="geometry" />
        </mxCell>
        <mxCell id="qPio0Fc4V_FM9tHUBAnY-50" value="store code" style="ellipse;whiteSpace=wrap;html=1;align=center;" parent="1" vertex="1">
          <mxGeometry x="-310" y="540" width="100" height="40" as="geometry" />
        </mxCell>
        <mxCell id="qPio0Fc4V_FM9tHUBAnY-51" value="received" style="shape=rhombus;double=1;perimeter=rhombusPerimeter;whiteSpace=wrap;html=1;align=center;" parent="1" vertex="1">
          <mxGeometry x="-20" y="380" width="120" height="60" as="geometry" />
        </mxCell>
        <mxCell id="qPio0Fc4V_FM9tHUBAnY-52" value="" style="edgeStyle=entityRelationEdgeStyle;fontSize=12;html=1;endArrow=ERoneToMany;rounded=0;startSize=8;endSize=8;curved=1;exitX=0;exitY=0.5;exitDx=0;exitDy=0;entryX=1;entryY=0.5;entryDx=0;entryDy=0;" parent="1" source="qPio0Fc4V_FM9tHUBAnY-51" target="qPio0Fc4V_FM9tHUBAnY-32" edge="1">
          <mxGeometry width="100" height="100" relative="1" as="geometry">
            <mxPoint x="40" y="360" as="sourcePoint" />
            <mxPoint x="140" y="260" as="targetPoint" />
          </mxGeometry>
        </mxCell>
      </root>
    </mxGraphModel>
  </diagram>
</mxfile>
